<svg xmlns="http://www.w3.org/2000/svg" width="15" height="12"><g fill="#C1C6CE"><path d="M3 8v4h4V8h2v4h4V8L8 3.516z"/><path d="M14.831 6.365L13 4.751V0h-2v2.987L8.332.635c-.02-.017-.043-.023-.064-.037-.026-.018-.052-.035-.08-.047-.032-.012-.063-.018-.095-.024C8.062.521 8.032.515 8 .515c-.031 0-.061.006-.092.012-.033.006-.063.012-.095.025-.028.011-.053.029-.08.046-.021.014-.045.02-.064.037l-6.498 5.73c-.207.183-.227.499-.045.706.099.112.237.169.375.169.118 0 .236-.041.331-.125L8 1.677l6.169 5.438c.096.084.214.125.331.125.139 0 .276-.058.375-.169.183-.207.163-.523-.044-.706z"/></g></svg>